<svg id="Beatriz" xmlns="http://www.w3.org/2000/svg" viewBox="0 0 682.65 429.78">
  <defs>
    <style>
      .cls-2 {
        isolation: isolate;
      }

      .mask {
		  fill: none;
		  stroke: #fff;
	  }
    </style>
  </defs>
  
  <title>beatrizsantosSVG</title>
  <defs>
	  <g id="Beatriz_Mask">
	    <mask id="mask-beatriz-B">
	    	<path id="B-mask" class="cls-1" d="M9.71,92.12A115.42,115.42,0,0,1,43.38,54C58.29,43.3,71.76,39.17,82.54,36c25.81-7.66,59.24-17.59,83.64,0,1.92,1.37,23.11,17,22.65,38.29-1.07,49.58-119.2,86.81-117.6,90.38.91,2,35.89-18.42,79.18-14.89,13.69,1.12,45.43,3.71,58.92,25.27,17.18,27.46-5.34,69.52-21.21,89.65-26,33-61.77,42-105.67,53.07-31.89,8-54,7.54-73.69,2.23-9.85-2.65-19.21-5.27-19-6.87.49-3.23,38.07,10.65,61-3.78C74.38,294.46,71,257.09,73.73,178.43c1-29.41,3.18-72.25,8.28-124.7"/>
	    </mask>
	    <mask id="mask-beatriz-E">
	    	<path id="e-mask" class="cls-1" d="M237.72,205.44a69.56,69.56,0,0,0,29.41,3.13c10.1-1.14,21.44-2.41,28.91-11.77.61-.77,9.77-12.65,5-26.64-.92-2.72-4.46-11.71-13-15.12-15-6-32.16,10.58-36.05,14.33-16,15.4-18.26,35.32-19,42.88-1.27,12.59-2.45,24.41,4.66,32.07,14.37,15.49,54.69,5.45,72.48-12.29,3.57-3.55,16.8-17.95,16.8-17.95L330.6,204"/>
	    </mask>
	    <mask id="mask-beatriz-AT">
	    	<path id="at-mask" class="cls-1" d="M382,171.78c-4.87.48-22.73,2.86-37.05,18a59.55,59.55,0,0,0-15.24,31.73c-1.37,7.87-4.34,25,5,31.93,5.34,4,12.37,2.85,15.55,2.35,11.84-1.88,19-11.27,22.1-15.35,1.74-2.28,3.66-6,7.51-13.31,4.89-9.34,4.81-10.16,9.08-18.55,7.17-14.09,9.87-16.62,12.17-25.2,1.37-5.14,2.58-12.32,1.88-12.51-.41-.11-5,24.38-14.16,73.36-.45,2.4-1.33,7.46,1.43,10.18,3.5,3.45,11.75,2.08,17.1-1.24,8.3-5.13,8.82-14.44,14.65-41.39,5.94-27.45,6.46-22.69,7.82-33.37,2.67-20.89-1.19-24.42,1.7-48.68.35-3,1.75-11.05,4.53-27.14,4.75-27.46,4-20.55,5.69-31.11,3.83-24.14,3.28-32.34,9.72-35.91,3.68-2,9.24-2.35,12,.3,4.93,4.74-4.33,13.88-6.48,35.22-1.45,14.29,1.24,24.68-6.35,31.07a17,17,0,0,1-4.22,2.54c-12,5.46-25.48.8-32.6-1.23C395,98.11,379.15,99,358.25,100.22s-32.84,5.63-33.05,4.78c-.35-1.39,31.9-13.48,71.25-16.94,11.75-1,21.18-1,24.77-1,25.6.19,33.48,4.07,57.41,5.26a278.37,278.37,0,0,0,41-1.24c27.67-2.84,30.6-7.32,51.8-7,13.64.18,33.92,2.33,33.92,2.33h0c4.27,4.88,8.61,11,6.72,14.43-2.78,5.08-16.65.21-35.25-1.11-23.34-1.65-22.52,4.53-61.48,7.53-24,1.85-50.81,1.54-50.81,1.54h0c-5,.89-11.83,3-16.69,8.62-6,7-5.12,14.84-5.87,35.93-.19,5.41-.8,20.62-2.3,34.85-1.91,18.17-3.78,20.74-6,38.83-1.16,9.43-1.59,19.22-2.44,38.79-.51,11.41-1.22,30.78-1,55.3.2,21.22.91,25.44,1.77,29.09a85.18,85.18,0,0,0,18.46,35.63"/>
	    </mask>
	    <mask id="mask-beatriz-R">
	    	<path id="r-mask" class="cls-1" d="M465.39,167.66c-3.43,74.62-1.75,90.84.56,91.07.76.08,1.91-1.59,12.08-35.86,7.61-25.61,10.73-37.35,21.19-49.05,4.75-5.31,11.61-12.78,19.3-11.58,9.78,1.52,15,16.15,16.09,19.06a41.48,41.48,0,0,1,2.38,15"/>
	    </mask>
	    <mask id="mask-beatriz-I">
	    	<path id="i-mask" class="cls-1" d="M561.31,138q-1-24.82-1.61-24.81-1.51,0-.86,146.38"/>
	    </mask>
	    <mask id="mask-beatriz-Z">
	    	<path id="z-mask" class="cls-1" d="M573.24,201.12A35.48,35.48,0,0,1,602.76,173c16.15-2.27,33.7,7.05,34.56,16.56,1.26,14-32.66,37.34-53.76,45.45-2.54,1-9.36,3.44-9.69,7.5-.38,4.72,8.26,8.66,14.3,12.14,0,0,13.76,7.93,32,31.33,24.84,31.85,5.44,86.32,1.29,98-5.69,16-13.62,38.23-34.56,47.52-3.25,1.44-19.65,8.71-32.4.72-11-6.93-12.77-21.19-13.68-28.8-1.77-14.76,2.63-26.36,11.52-49,9.64-24.53,15.09-37.93,28.8-50.4,3.75-3.41,9-6.84,19.44-13.68,26.32-17.22,34.78-17.73,38.88-17.28,1.09.12,5.77.73,13,1.44,3.39.33,6.16.57,7.92.72" />
	    </mask>
	  </g>
  </defs>

  <g id="BeatrizBlack" class="cls-2">
    <path mask="url(#mask-beatriz-B)" id="B_black" d="M83.42,22.39A6,6,0,0,1,87.65,24a13,13,0,0,1,2.91,4.05,22.19,22.19,0,0,1,1.68,5.09,25.22,25.22,0,0,1,.53,4.77v4.83A146.62,146.62,0,0,1,112.16,39a185.4,185.4,0,0,1,20.27-1.3,137.47,137.47,0,0,1,19.83,2,55.62,55.62,0,0,1,18.33,6.47A37.69,37.69,0,0,1,184,59.21q5.19,8.37,5.2,21.55a58.38,58.38,0,0,1-6.61,21.41,92.14,92.14,0,0,1-13.31,18.74,129.66,129.66,0,0,1-17.63,16,230.86,230.86,0,0,1-19.39,13.18l.53,1c3.17-.44,6.2-.78,9.08-1s5.73-.39,8.55-.39q18.68,0,31.82,5.36a65.47,65.47,0,0,1,21.59,13.71,56.58,56.58,0,0,1,12.69,18.47,63,63,0,0,1,4.94,19.66,94.21,94.21,0,0,1-.53,10.18,63.75,63.75,0,0,1-1.76,9.47q-1.24,4.63-3,9.27a83.73,83.73,0,0,1-4.41,9.6A117.83,117.83,0,0,1,189,274.14,157.86,157.86,0,0,1,158.87,296a206.75,206.75,0,0,1-35.26,15.54,305.49,305.49,0,0,1-38.25,10.12,357.3,357.3,0,0,1-39.22,5.48q-19.66,1.64-38,1.63H1.45c.24-.52,1.5-1,3.79-1.37s5.09-.76,8.38-1.11,6.81-.7,10.57-1,7.23-.66,10.4-.92l8.64-.78,7.58-14.23v.13a241.07,241.07,0,0,0,9.08-30.56q3.8-16.45,6.35-33.69t4.31-34.34q1.77-17.1,3.18-32.38A31.41,31.41,0,0,1,63,180.65q0-1.83,3.18-4.24A93.38,93.38,0,0,1,74.26,171q2.64-29.25,4.49-58.57T82,53.73a128.8,128.8,0,0,0-13.75,7.05A135,135,0,0,0,55,69.66,119.77,119.77,0,0,0,43.23,79.91a78.08,78.08,0,0,0-9.34,11A26.54,26.54,0,0,1,32,94.6c-1,1.74-2.15,3.53-3.44,5.35s-2.62,3.53-4,5.1a8.85,8.85,0,0,1-3.26,2.74,3.18,3.18,0,0,1-1.5-1.77,9.64,9.64,0,0,1-.26-2.41,18.46,18.46,0,0,1,.62-4.51,34.45,34.45,0,0,1,1.5-4.57c.58-1.43,1.14-2.74,1.67-3.91a12.42,12.42,0,0,1,1.32-2.42A71.39,71.39,0,0,1,35.48,74.75,109.09,109.09,0,0,1,49.31,63.2a132,132,0,0,1,15.87-9.6,146.18,146.18,0,0,1,17-7.44V38.84a12.32,12.32,0,0,1,.35-3V36a6.67,6.67,0,0,0,.18-1.5V31.79l-.36-7.7A3.32,3.32,0,0,0,82,23a1.57,1.57,0,0,1-.17-.65Zm16,144.68h.18q-4,2-8.2,3.85t-8,3.59q-.89,9.93-2.29,22.72t-3.44,26.9q-2,14.1-4.84,28.53t-6.61,27.68a188.92,188.92,0,0,1-8.73,24.42A78.83,78.83,0,0,1,46.4,323.37q9.7-1.17,18.6-2.55t17.45-3.13q8.55-1.77,16.84-4t16.92-5.1a221.48,221.48,0,0,0,34.11-15.14A156.16,156.16,0,0,0,181,271.73a108.1,108.1,0,0,0,22.21-28.14,70.53,70.53,0,0,0,8.55-34.34,50,50,0,0,0-5-22.86,48.63,48.63,0,0,0-13.57-16.58,61.42,61.42,0,0,0-19.75-10.12,79.45,79.45,0,0,0-23.53-3.46,96.08,96.08,0,0,0-12.43.85q-6.44.85-12.78,2.29t-12.43,3.26q-6.08,1.83-11.37,3.79Zm-13.92-1.83a116.37,116.37,0,0,1,12-5.09q6.18-2.22,12.87-4.18l-.17.13a228.05,228.05,0,0,0,24-13.84,144.16,144.16,0,0,0,22.48-18.15,99,99,0,0,0,16.74-21.81A49.8,49.8,0,0,0,180,77.49q0-10.44-4.76-17a32.56,32.56,0,0,0-12-10.12,53.42,53.42,0,0,0-15.6-4.9,115.08,115.08,0,0,0-15.78-1.43,153.86,153.86,0,0,0-20.54,1.5,125.29,125.29,0,0,0-19.12,4.37q-2.65,57.72-7.94,114.78Z" transform="translate(20.21 -16.15)"/>
    
    <path mask="url(#mask-beatriz-E)" id="e_black" d="M270.28,245a50.86,50.86,0,0,0,13.31-1.89,102.88,102.88,0,0,0,13.66-4.77A142.38,142.38,0,0,0,310.2,232q6.26-3.45,11.2-6.59l5.81-4.57q1.59-1.58,4.24-3.72t5.28-4.05c1.77-1.26,3.38-2.33,4.85-3.2a8.16,8.16,0,0,1,2.91-1.31l.88-1.17c.24.17.35.56.35,1.17q0,1.44-2.55,4.44a79.43,79.43,0,0,1-6,6.27q-3.44,3.27-6.78,6.2c-2.24,2-3.88,3.38-4.94,4.25v.13q-5.28,3.78-12.07,7.77A155.17,155.17,0,0,1,299.27,245a106.24,106.24,0,0,1-14.8,5.48,52.47,52.47,0,0,1-14.55,2.16,32.34,32.34,0,0,1-11.63-2.09,20.37,20.37,0,0,1-9.17-7,18.77,18.77,0,0,1-3.26-7.71q-.8-4.31-1.14-7.83a47.83,47.83,0,0,1,1.49-11.49,70,70,0,0,1,4.15-11.89,69,69,0,0,1,6.43-11.29,57.88,57.88,0,0,1,8.55-9.73,45.13,45.13,0,0,1,10.31-7.05,34.55,34.55,0,0,1,11.9-3.39,52.64,52.64,0,0,1,5.73.65,19.45,19.45,0,0,1,6.08,2,13.9,13.9,0,0,1,4.76,4.18,11.66,11.66,0,0,1,1.94,7,16.18,16.18,0,0,1-2.73,9,30.79,30.79,0,0,1-7.05,7.51,56,56,0,0,1-9.7,5.94A85.17,85.17,0,0,1,276,213.69a86.17,86.17,0,0,1-9.79,2.61,39.08,39.08,0,0,1-7.22.91,12.16,12.16,0,0,1-4.24-.78q-.52,3-1,5.81c-.29,1.87-.5,3.72-.61,5.55a33.3,33.3,0,0,0,1.32,6.66,14.93,14.93,0,0,0,3,5.48,14.17,14.17,0,0,0,5.11,3.72A18.77,18.77,0,0,0,270.28,245Zm17.8-63.33a23.71,23.71,0,0,0-10.22,3.59,43.62,43.62,0,0,0-9,7.45,62.15,62.15,0,0,0-7.23,9.46,82.45,82.45,0,0,0-5.29,9.8,36.4,36.4,0,0,0,6.52-1.76,83.76,83.76,0,0,0,8.11-3.4q4.23-2,8.55-4.5a64.32,64.32,0,0,0,7.85-5.29,42.21,42.21,0,0,0,5.9-5.62,14.29,14.29,0,0,0,3.09-5.42,4.6,4.6,0,0,0-3-3.33,12.25,12.25,0,0,0-4.41-1Z" transform="translate(20.21 -16.15)"/>
    
    <path mask="url(#mask-beatriz-AT)" id="at_black" d="M380.1,196.06l.53.39a6.56,6.56,0,0,1-3.35-1h.35l-1.23-.52V195l-2.38-.65a6.83,6.83,0,0,0-1.68-.26,17.87,17.87,0,0,0-8.19,3.72,44.28,44.28,0,0,0-7.59,7.64A70.65,70.65,0,0,0,350,215.58a106.43,106.43,0,0,0-5.2,11.1,82,82,0,0,0-3.43,10.51,35.77,35.77,0,0,0-1.24,8.49q0,.91.09,1.89a3,3,0,0,0,.62,1.63l.53.39-.35-.39a2.68,2.68,0,0,1,.7.46.67.67,0,0,0,.53.19q1.94,0,5.29-3.13t7.05-7.38q3.7-4.23,7-8.42c2.17-2.78,3.79-4.92,4.85-6.4h-.18l.53-.52c2.23-2.78,4.47-5.77,6.7-8.94s4.46-6.25,6.7-9.21h-.35q4-5.74,8.28-11.29t8.46-10.65h-.17c.23-.6.93-1,2.11-1.3a3.86,3.86,0,0,1,1.59.32,7.07,7.07,0,0,1,1.06.59v-.13a6.31,6.31,0,0,1,1.41,1.83,4.61,4.61,0,0,1,.52,2.09V188a1.37,1.37,0,0,1-.17.72l-2.47,8.48c-.24.79-.5,1.57-.79,2.35s-.56,1.57-.8,2.35q-3.52,10.84-6.87,22.27a82.46,82.46,0,0,0-3.35,23.3q0,.92.09,2.22a9.27,9.27,0,0,0,.53,2.55,9.16,9.16,0,0,0,1.05,2.15,2.26,2.26,0,0,0,1.68,1.05,13.1,13.1,0,0,0,7.93-3.79,46.58,46.58,0,0,0,7.49-9.07,101.1,101.1,0,0,0,6.79-12.34q3.18-6.79,5.91-13.52T424.78,204q2-6,3.44-9.92v.13q1.93-21.15,4.85-42.63t6.43-42.11q-25.38,1-51.29,2.61t-49,3.78A5.18,5.18,0,0,1,338,116h-1.47a16.75,16.75,0,0,1-4.17-.58,5.24,5.24,0,0,1-3.16-1.9c0-1.48,1-2.67,3.06-3.59a19.16,19.16,0,0,1,6.17-1.63q23-2.22,49.3-3.59t53.06-2.29q1.59-10.19,4-20.1t4.85-19.2A54.61,54.61,0,0,1,451.67,56a34.49,34.49,0,0,1,3.61-7.18,21.07,21.07,0,0,1,5.29-5.55,11.88,11.88,0,0,1,7.14-2.22l-2.65,5.23A169.81,169.81,0,0,0,457,71.1q-3.18,12.91-5.47,26l-.88,5.09q23.26-.65,46.18-1.11l43.37-.85c.94,0,2.58,0,4.93-.06s5.21-.11,8.55-.2,7-.15,11-.19,8.05-.07,12.17-.07q6.87,0,13.57.07t12.25.32q5.55.27,9.43.72T617,102c-1.41.61-4.21,1.11-8.38,1.5s-9,.77-14.54,1.11-11.34.64-17.45.85-11.81.39-17.1.52l-13.4.33c-3.64.09-5.76.13-6.34.13l-90.43,2.74q-4.77,24.81-8.29,50.41t-6,51.31q-2.48,25.73-3.7,51.32t-1.24,50.4q0,10.57.53,21.22t1.94,21.22c.35,2.78.79,5.9,1.32,9.34a44.31,44.31,0,0,0,2.73,9.92,25.68,25.68,0,0,0,5.73,8.55,20.22,20.22,0,0,0,10.14,5.22l-6.17.92a10.73,10.73,0,0,1-5.91-1.76,19,19,0,0,1-4.84-4.57,32.74,32.74,0,0,1-3.71-6.4,73.56,73.56,0,0,1-2.73-7.18q-1.14-3.6-1.94-7t-1.14-5.88a271,271,0,0,1-3.26-30.22q-.8-15.23-.8-30.23,0-20,1.24-39.5T425.93,217c-.12,0-.18,0-.18-.07s-.06-.06-.17-.06l-2.73,7.38q-1.68,4.5-4.06,9.53t-5.29,10.18a70.38,70.38,0,0,1-6.17,9.27,34.77,34.77,0,0,1-6.87,6.73,12.64,12.64,0,0,1-7.49,2.61h-1.06a9.52,9.52,0,0,1-4.76-2.28,14.69,14.69,0,0,1-3.17-4.12,18.47,18.47,0,0,1-1.77-5,24.64,24.64,0,0,1-.53-4.83V244a61.16,61.16,0,0,1,.62-8.36q.61-4.44,1.68-9t2.29-9.2q1.23-4.64,2.64-8.82l-.7-.39L383.27,215l-9.87,14.1-3.53,4.44q-3,3.79-6.25,8t-6.61,8a47,47,0,0,1-6.79,6.27,13.21,13.21,0,0,1-6.79,2.8,9.31,9.31,0,0,1-5.57-1.5,10.48,10.48,0,0,1-3.19-3.65,16,16,0,0,1-1.56-4.57,25.33,25.33,0,0,1-.43-4.25,46.23,46.23,0,0,1,1.55-11,91.64,91.64,0,0,1,4.23-12.73,97,97,0,0,1,6.38-12.73A87.27,87.27,0,0,1,352.6,197a43.65,43.65,0,0,1,8.28-7.9,14.36,14.36,0,0,1,8.29-3,12.16,12.16,0,0,1,3.88.72,17.07,17.07,0,0,1,4.05,2,13.44,13.44,0,0,1,3.26,3.06,6.31,6.31,0,0,1,1.32,3.86l-.35.39Z" transform="translate(20.21 -16.15)"/>
    
    <path mask="url(#mask-beatriz-R)" id="r_black" d="M471.23,263.83a4.13,4.13,0,0,1-1.41-.26v.13a5.17,5.17,0,0,1-3.08-1.9,5.58,5.58,0,0,1-.79-3.07,105.31,105.31,0,0,1,.79-12.86,106.33,106.33,0,0,0,.79-13c.24-2.52.38-5.46.44-8.81s.15-6.86.27-10.52.29-7.26.53-10.83.58-6.84,1.05-9.8a32.52,32.52,0,0,1,1.94-7.37c.82-2,1.88-3.12,3.18-3.46a3.8,3.8,0,0,1,2.11,1.24,6.22,6.22,0,0,1,1.32,2.35,14.78,14.78,0,0,1,.62,2.87c.12,1,.23,2,.35,2.94l.36,3.78q0,8-.71,15.8t-1.23,15.67a1.15,1.15,0,0,1,.35.07,1,1,0,0,0,.35.06q1.59-3.65,4.23-8.88c1.77-3.48,3.73-7.11,5.91-10.9s4.55-7.55,7.14-11.29a80.23,80.23,0,0,1,8.19-10.12,41,41,0,0,1,9.08-7.25,19.2,19.2,0,0,1,9.7-2.74h1.58q6.88,1,10.32,5.61a17.75,17.75,0,0,1,3.43,11,9.69,9.69,0,0,1-.26,2.29,4.49,4.49,0,0,1-.79,1.76c-1.41-.35-2.15-1-2.21-2a17.7,17.7,0,0,0-.61-3.4l-.53-2.08a11.21,11.21,0,0,0-3.35-5.23,9.84,9.84,0,0,0-6-2.48q-5.12.39-10.4,5.29a69,69,0,0,0-10.22,12.27,152.71,152.71,0,0,0-9.43,16.33q-4.5,8.94-8.11,17.62t-6.35,16.2q-2.73,7.5-4.14,11.94a4.07,4.07,0,0,1-1.41,2A5.31,5.31,0,0,1,471.23,263.83Z" transform="translate(20.21 -16.15)"/>
    
    <path mask="url(#mask-beatriz-I)" id="i_black" d="M546.5,240.45a94.28,94.28,0,0,1-.52-10.18c0-1.65,0-4,.17-7.12s.32-6.44.62-10.05.67-7.29,1.15-11,1-7.13,1.67-10.18a47.81,47.81,0,0,1,2.12-7.51q1.14-2.94,2.73-2.94a8.09,8.09,0,0,1,1.94.33q1.23.33,2.46.78a8.79,8.79,0,0,1,2.12,1.11,1.83,1.83,0,0,1,.88,1.44,173.4,173.4,0,0,0-5,27.49q-1.5,14.43-1.68,28l.71,9.67q.52,2.61,1.14,4.83a18.66,18.66,0,0,0,2,4.57l-.18-.13,2.47,2.61a3.15,3.15,0,0,1-1.06.59,8.39,8.39,0,0,1-1.23.06,7.15,7.15,0,0,1-5.73-2.61,22,22,0,0,1-3.61-6.2,40.39,40.39,0,0,1-2.12-7.38c-.47-2.52-.82-4.53-1.06-6ZM568,141.87c-.47,1.39-1,2.81-1.67,4.24a3.71,3.71,0,0,1-2.91,2.42,3.66,3.66,0,0,1-1.94-2.48,12.82,12.82,0,0,1-.53-3.53v-1.44a27.66,27.66,0,0,1,.35-3.13,33.45,33.45,0,0,1,1.15-4.9,18.42,18.42,0,0,1,2.11-4.57,3.87,3.87,0,0,1,3.26-2,9,9,0,0,1,2.65.78l-.35-.13a5.3,5.3,0,0,1,.79.79,1.56,1.56,0,0,1,.44.78v.13l1.76.65q-1.23,2.35-2.29,4.9t-1.94,4.9Z" transform="translate(20.21 -16.15)"/>
    
    <path mask="url(#mask-beatriz-Z)" id="Z_Black" d="M580.35,204.15a31.75,31.75,0,0,1,14.54-14.56,48.44,48.44,0,0,1,21.77-4.76,28.82,28.82,0,0,1,8.2,1.17,20.6,20.6,0,0,1,7,3.66,18.44,18.44,0,0,1,7,15.15,25.94,25.94,0,0,1-3.52,13.25,47.69,47.69,0,0,1-9.26,11.29,103.44,103.44,0,0,1-12.86,9.93q-7.14,4.69-14.37,9.14l-6,3.79a68.15,68.15,0,0,1,16.48,15.4A91.35,91.35,0,0,1,620.19,286c1.29-.43,2.61-.84,4-1.24s2.38-.67,3.08-.84v.13l3-.92a33.07,33.07,0,0,1,6.78-1.24q3.79-.33,8.38-.46a31.45,31.45,0,0,1,8.81,1.7l-.35,1.18a23.19,23.19,0,0,1-3.79-.2,8.7,8.7,0,0,0-1.68-.19,2.74,2.74,0,0,0-.61.06,3.78,3.78,0,0,1-.8.07H645.4a74.7,74.7,0,0,0-11.73,2.35q-6.07,1.69-11.72,3.78a68.79,68.79,0,0,1,3.79,11.36q1.5,6.13,2.38,12.28t1.24,11.81q.35,5.69.35,10,0,6.54-.62,13.06t-1.5,13.58A148.07,148.07,0,0,1,624,377.43a134.35,134.35,0,0,1-6,16.45,125.24,125.24,0,0,1-8.38,15.87,69.05,69.05,0,0,1-11,13.58,51.11,51.11,0,0,1-13.92,9.46,40.23,40.23,0,0,1-17,3.53,27.26,27.26,0,0,1-12.78-2.74,26.36,26.36,0,0,1-8.55-7,28.67,28.67,0,0,1-4.94-9.47,54.6,54.6,0,0,1-2.11-10.31l-.36-3.66a97.14,97.14,0,0,1,2.91-21.35,145.1,145.1,0,0,1,7.5-22.33,155.13,155.13,0,0,1,11.45-21.8,160.44,160.44,0,0,1,14.72-19.85,135.56,135.56,0,0,1,17.1-16.52,91.75,91.75,0,0,1,18.95-11.88,76.9,76.9,0,0,0-11.72-19.06,58,58,0,0,0-17.54-14,4.63,4.63,0,0,1-2.65-4.31,3.63,3.63,0,0,1,2.12-3.52h-.18l4.94-3.4q7.76-4.83,15.42-9.92t14-9.66q2.28-1.83,4.58-4a38.81,38.81,0,0,0,4.14-4.7,27.46,27.46,0,0,0,3.09-5.22,16.58,16.58,0,0,0,1.41-5.88q0-6.79-3.61-9.34a14.82,14.82,0,0,0-8.73-2.54,40.23,40.23,0,0,0-17,3.52,35.08,35.08,0,0,0-13,10.19h.18q-1.59,2.47-3.79,5.48c-1.47,2-2.73,3.83-3.79,5.49a5.33,5.33,0,0,1-1.76-3.66,13.75,13.75,0,0,1,.35-2.94c.23-1.09.47-2.15.7-3.2a23.89,23.89,0,0,1,.8-2.8A8.12,8.12,0,0,1,580.35,204.15ZM569.77,428.48q.36,0,.36-.06c0-.05.11-.07.35-.07a34.29,34.29,0,0,0,13.31-4.83,51.23,51.23,0,0,0,11.1-9.4,70.75,70.75,0,0,0,8.9-12.47,119.19,119.19,0,0,0,6.79-14,135.63,135.63,0,0,0,4.85-14.1q1.94-6.92,3-12.8v.13q.87-6.52,1.41-12.66t.53-12.28a150.16,150.16,0,0,0-1.15-18.21,102.69,102.69,0,0,0-4.32-19.13l-1.41-4.31a92.36,92.36,0,0,0-17.36,11.88,137.28,137.28,0,0,0-15.78,16,150.93,150.93,0,0,0-13.48,18.8,157.17,157.17,0,0,0-10.49,20.37,124.15,124.15,0,0,0-6.79,20.76,88.43,88.43,0,0,0-2.38,19.79,42.82,42.82,0,0,0,1.23,10.57,26.18,26.18,0,0,0,3.71,8.42,17.46,17.46,0,0,0,6.25,5.62,19.05,19.05,0,0,0,9.08,2Z" transform="translate(20.21 -16.15)"/>
  </g>
</svg>
