<svg xmlns="http://www.w3.org/2000/svg" viewBox="0 0 397.05 955.33"><defs><style>.cls-1{fill:#3b1400;}</style></defs><title>cup_of_coffee</title><g id="Layer_2" data-name="Layer 2"><path class="cls-1" d="M610.17,1864.05s0,.53,0,1.56a25.55,25.55,0,0,1-.44,4.55,35.45,35.45,0,0,1-7.55,15.67c-4.71,5.94-11.75,12.09-20.7,17.6a154.27,154.27,0,0,1-14.68,8c-5.3,2.55-11,4.91-17.06,7.16a294.6,294.6,0,0,1-39.89,11.55,414.67,414.67,0,0,1-45.7,7.4,492.81,492.81,0,0,1-49.41,2.77,507.1,507.1,0,0,1-51.07-2.18,419.31,419.31,0,0,1-50.61-7.87q-12.42-2.71-24.39-6.39a235.45,235.45,0,0,1-23.24-8.4,153.79,153.79,0,0,1-21.47-11,87.48,87.48,0,0,1-18.3-14.84,49.94,49.94,0,0,1-6.84-9.55,33.56,33.56,0,0,1-3.74-11.11c-.17-1-.2-1.94-.29-2.91v-2a2.75,2.75,0,0,1,0-.31l.05-.63.08-1.26c0-.45.13-1,.19-1.47a24.91,24.91,0,0,1,.55-2.83,34,34,0,0,1,4.21-9.88A54.93,54.93,0,0,1,233,1833.65a100.08,100.08,0,0,1,14.22-9.06,160.9,160.9,0,0,1,24.92-10.46c7.07-2.38,12.75-3.81,16.61-4.79,1.92-.5,3.42-.81,4.42-1l1.52-.35-5.76,2c-3.74,1.32-9.2,3.37-16,6.26-3.4,1.44-7.12,3.14-11.08,5.14s-8.17,4.26-12.48,7a95.52,95.52,0,0,0-12.91,9.51,50.71,50.71,0,0,0-11,13.14,26.94,26.94,0,0,0-3,8.13,18.45,18.45,0,0,0-.3,2.07c0,.35-.07.64-.09,1v1.9s0,.26,0,0v.14l0,.27.07,1.09c.11.73.16,1.46.34,2.18a27.54,27.54,0,0,0,3.28,8.46,42.25,42.25,0,0,0,6,7.7,78.86,78.86,0,0,0,16.95,12.65,157.78,157.78,0,0,0,20.49,9.71c7.21,2.84,14.73,5.34,22.45,7.55s15.64,4.12,23.69,5.81a452.62,452.62,0,0,0,49.39,7.34c16.69,1.62,33.47,2.37,50,2.48q12.39,0,24.56-.37c8.09-.31,16.08-.79,23.92-1.41,15.69-1.3,30.8-3.14,45-5.71,7.1-1.26,14-2.74,20.55-4.3s12.91-3.27,18.91-5.13a187.76,187.76,0,0,0,31.67-12.81c9-4.77,16.19-10,21.16-15.35a43.66,43.66,0,0,0,5.8-7.75,29,29,0,0,0,2.81-6.62,27.52,27.52,0,0,0,.89-4.41C610.12,1864.58,610.17,1864.05,610.17,1864.05Z" transform="translate(-214.8 -1003.78)"/><path class="cls-1" d="M570,1919.84l-2.81,2.34a40.49,40.49,0,0,1-3.48,2.69c-1.43,1-3.08,2.17-5,3.35s-4.08,2.4-6.46,3.71l-3.78,1.9c-1.33.63-2.67,1.37-4.11,2a195.42,195.42,0,0,1-19.65,7.54l-5.63,1.8-5.89,1.66c-4,1.18-8.18,2.08-12.48,3.13-2.14.55-4.34.94-6.56,1.4l-6.74,1.34-6.92,1.17c-2.33.39-4.68.78-7.07,1.08l-7.2,1c-2.42.34-4.87.54-7.33.81s-4.94.53-7.43.76l-7.52.54c-2.51.19-5,.37-7.58.47l-7.63.33c-5.11.19-10.23.19-15.36.3l-7.67-.12c-2.54-.06-5,0-7.62-.17-5.12-.21-10.26-.38-15.28-.8l-7.51-.54c-2.5-.22-5-.51-7.43-.75-4.93-.47-9.78-1.12-14.54-1.79-2.38-.3-4.74-.69-7.07-1.09l-6.92-1.16-6.74-1.35c-2.22-.46-4.42-.84-6.56-1.39-4.29-1-8.48-2-12.48-3.14l-5.89-1.65-5.63-1.8a195.32,195.32,0,0,1-19.65-7.55c-1.44-.59-2.78-1.34-4.1-2l-3.78-1.9c-2.38-1.31-4.52-2.6-6.46-3.71s-3.55-2.37-5-3.35a39.21,39.21,0,0,1-3.5-2.69l-2.81-2.35,3.21,1.75a99.29,99.29,0,0,0,9.22,4.43c2.05.79,4.3,1.72,6.78,2.62s5.2,1.8,8.13,2.66c5.86,1.73,12.49,3.55,19.84,5.08l5.61,1.22,5.87,1.07c4,.79,8.12,1.37,12.36,2s8.64,1.19,13.11,1.79c4.5.42,9.06,1.09,13.75,1.45s9.42.88,14.24,1.15c2.41.15,4.83.34,7.27.47l7.36.37c4.93.31,9.85.3,14.81.51s10.16.11,15.06.18,10,0,15-.18,9.95-.19,14.87-.5l7.35-.36c2.44-.13,4.86-.32,7.27-.48,4.83-.27,9.57-.75,14.25-1.15,2.34-.17,4.65-.44,6.94-.7l6.81-.74c4.47-.6,8.86-1.15,13.11-1.79s8.39-1.27,12.36-2l5.87-1.08,5.61-1.21c7.35-1.54,14-3.36,19.84-5.08,2.93-.87,5.59-1.88,8.13-2.67s4.73-1.83,6.78-2.62a98.72,98.72,0,0,0,9.22-4.44Z" transform="translate(-214.8 -1003.78)"/><path class="cls-1" d="M540.34,1752.74l-.12,1.5a14.39,14.39,0,0,1-1.23,4.19,22.67,22.67,0,0,1-4.19,5.68,43,43,0,0,1-7.58,5.83c-6.09,3.82-14.17,7.29-23.71,10.34-4.78,1.5-9.91,2.94-15.38,4.25s-11.27,2.49-17.36,3.55-12.46,2-19.08,2.74-13.5,1.4-20.58,1.84c-3.55.23-7.12.38-10.8.51l-5.46.15-5.59.07c-7.47,0-15.11-.13-22.88-.64-15.54-1-31.63-3-47.71-7.45a110.19,110.19,0,0,1-23.87-9.3,47.19,47.19,0,0,1-11.22-8.28,26.71,26.71,0,0,1-2.48-2.94,17,17,0,0,1-1.14-1.64l-1-1.8c-.33-.61-.58-1.32-.86-2-.13-.34-.27-.67-.39-1l-.28-1.09A14.78,14.78,0,0,1,297,1755l-.1-1.15,0-.57,0-.29a3,3,0,0,1,0-.76l.13-1.53,0-.39.12-.64c.08-.42.17-.86.27-1.28s.21-.86.33-1.28.26-.68.39-1a18.74,18.74,0,0,1,.86-2l1-1.81a16.5,16.5,0,0,1,1.15-1.64,27.67,27.67,0,0,1,2.48-2.94,47.47,47.47,0,0,1,11.21-8.29,109.92,109.92,0,0,1,23.87-9.31c16.08-4.42,32.18-6.43,47.71-7.45a358.17,358.17,0,0,1,44.73.09q10.65.66,20.59,1.84c6.63.75,13,1.68,19.09,2.74s11.87,2.29,17.35,3.56,10.61,2.76,15.38,4.27c9.54,3,17.62,6.51,23.71,10.33a42.57,42.57,0,0,1,7.58,5.84A22.57,22.57,0,0,1,539,1747a14.44,14.44,0,0,1,1.23,4.2Zm0,0s0-.51-.13-1.5a14.35,14.35,0,0,0-1.25-4.18,23,23,0,0,0-4.22-5.63,39.36,39.36,0,0,0-7.63-5.72,79.86,79.86,0,0,0-10.63-5.21,127.15,127.15,0,0,0-13.23-4.43,203.2,203.2,0,0,0-32.84-6.11q-9.14-1-19-1.53c-6.59-.28-13.42-.39-20.39-.3a373.06,373.06,0,0,0-43.79,3.1c-7.53,1-15.14,2.2-22.73,3.8a225.58,225.58,0,0,0-22.64,5.79c-3.74,1.15-7.39,2.5-11,4a79,79,0,0,0-10.26,5,39,39,0,0,0-8.41,6.3,16.39,16.39,0,0,0-1.46,1.76,6.65,6.65,0,0,0-.61.88c-.16.29-.32.58-.49.86s-.22.57-.35.85l-.17.4a.83.83,0,0,1,0,.22.88.88,0,0,1-.09.2,1.09,1.09,0,0,0-.06.11l0,.38-.12,1.54c0-.93,0-.2,0-.39v.1l0,.19,0,.39c0,.26.12.52.16.79l.07.4c.05.13.12.27.18.41a7.48,7.48,0,0,0,.35.84q.25.43.48.87a9.3,9.3,0,0,0,.61.88,16.52,16.52,0,0,0,1.47,1.76c.55.58,1.18,1.14,1.79,1.7s1.32,1.1,2.05,1.62a53.54,53.54,0,0,0,4.56,3,81,81,0,0,0,10.26,5c3.57,1.47,7.23,2.81,11,4a229.08,229.08,0,0,0,22.64,5.8c7.6,1.6,15.2,2.84,22.73,3.8s15,1.73,22.29,2.23l5.44.33,5.44.26c3.56.13,7.12.25,10.62.28q10.5.12,20.4-.32t19-1.53a203.15,203.15,0,0,0,32.84-6.12,127.15,127.15,0,0,0,13.23-4.43,79.84,79.84,0,0,0,10.63-5.22,39,39,0,0,0,7.63-5.72,22.8,22.8,0,0,0,4.22-5.63,14.39,14.39,0,0,0,1.25-4.17C540.3,1753.25,540.34,1752.74,540.34,1752.74Z" transform="translate(-214.8 -1003.78)"/><path class="cls-1" d="M297.81,1760.22c-.13,4.31,0,8.62.16,12.91s.53,8.58,1,12.85a214.63,214.63,0,0,0,4.21,25.3,169.42,169.42,0,0,0,7.58,24.33A125,125,0,0,0,322.28,1858a118.34,118.34,0,0,0,7.4,10.1,101.76,101.76,0,0,0,8.53,9.08,90,90,0,0,0,9.59,7.86c1.66,1.23,3.42,2.33,5.15,3.45s3.54,2.13,5.38,3.07,3.68,1.87,5.53,2.78,3.77,1.7,5.72,2.4a110.63,110.63,0,0,0,11.81,3.83c2,.47,4,1,6.07,1.4l3.06.61,3.08.5c2,.37,4.13.56,6.2.83s4.16.37,6.23.57h.17l.24,0c1,.15,2.31.29,3.49.39s2.42.22,3.64.29c2.44.16,4.89.26,7.35.28a138.78,138.78,0,0,0,14.7-.64,118.57,118.57,0,0,0,28.5-6.21,104.24,104.24,0,0,0,13.24-5.83,87,87,0,0,0,12.08-7.79,82,82,0,0,0,19.15-21.26,101.45,101.45,0,0,0,6.73-12.82,107,107,0,0,0,4.9-13.76,139,139,0,0,0,3.25-14.37c.93-5.24,2.08-10.22,3.41-15.26s2.88-10,4.71-14.88a107.68,107.68,0,0,1,6.49-14.41,51.61,51.61,0,0,1,9.8-13.12,25.85,25.85,0,0,1,7.3-4.88,19.71,19.71,0,0,1,9-1.62h.27a19.16,19.16,0,0,1,2.15.45c.66.17,1.31.35,2,.56a39.07,39.07,0,0,1,3.77,1.45,33.68,33.68,0,0,1,6.95,4.16,29.11,29.11,0,0,1,5.67,5.9,27.84,27.84,0,0,1,3.71,7.26,31.84,31.84,0,0,1,1.58,7.83,39.78,39.78,0,0,1-.13,7.8,65.65,65.65,0,0,1-3.59,14.76l-.06.17,0,0a38.46,38.46,0,0,1-2,3.37c-.7,1.06-1.44,2.08-2.2,3.09a67.47,67.47,0,0,1-4.92,5.73c-.86.91-1.76,1.79-2.69,2.63s-1.86,1.68-2.82,2.48-1.95,1.56-2.94,2.32-2,1.47-3.07,2.15-2.09,1.34-3.15,2-2.15,1.25-3.26,1.82-2.21,1.12-3.33,1.65-2.26,1-3.41,1.46c-2.3.91-4.64,1.72-7,2.4-1.18.37-2.38.64-3.57.95s-2.4.52-3.6.77c1.17-.36,2.35-.69,3.51-1.08s2.33-.77,3.46-1.23c2.29-.86,4.52-1.84,6.71-2.91,1.09-.54,2.16-1.12,3.23-1.69s2.12-1.19,3.14-1.84,2-1.31,3-2,2-1.39,2.93-2.14,1.89-1.5,2.81-2.27,1.81-1.59,2.68-2.42,1.72-1.68,2.54-2.55,1.62-1.77,2.41-2.68a62.79,62.79,0,0,0,4.35-5.68c.66-1,1.3-2,1.89-3a32.11,32.11,0,0,0,1.6-3l-.09.22a61.29,61.29,0,0,0,2.58-13.9,31.68,31.68,0,0,0-1.82-13.33,22,22,0,0,0-7.89-10.09,27.17,27.17,0,0,0-5.77-3.11,28.75,28.75,0,0,0-3.13-1.05c-.53-.14-1.06-.27-1.59-.38s-1.12-.21-1.46-.25l.27,0c-4-.15-7.81,1.82-11,5a44.49,44.49,0,0,0-8,11.46,100.31,100.31,0,0,0-5.61,13.52c-1.59,4.66-2.94,9.44-4.14,14.26s-2.24,9.74-3,14.51a146,146,0,0,1-3.15,15.4,117.72,117.72,0,0,1-5,15,97,97,0,0,1-7.24,14.22,91.57,91.57,0,0,1-21.27,23.91,96.68,96.68,0,0,1-13.43,8.8,99.36,99.36,0,0,1-14.61,6.45,128,128,0,0,1-30.92,6.53,150.27,150.27,0,0,1-15.73.58c-2.63,0-5.25-.16-7.88-.35-1.31-.09-2.62-.2-3.94-.35s-2.59-.3-4.07-.54l.4,0c-2.2-.24-4.42-.43-6.62-.73s-4.41-.58-6.6-1l-3.28-.6-3.27-.73c-2.18-.45-4.33-1.08-6.49-1.64a118.78,118.78,0,0,1-12.68-4.4c-2.09-.81-4.11-1.81-6.15-2.74s-4-2-5.94-3.15-3.84-2.33-5.74-3.53-3.7-2.54-5.46-3.94A96.62,96.62,0,0,1,333,1882.6a109.38,109.38,0,0,1-8.83-10.06,105.71,105.71,0,0,1-7.44-11,131,131,0,0,1-11-24,158.29,158.29,0,0,1-6.38-25.41c-.72-4.3-1.31-8.61-1.74-12.93s-.67-8.66-.81-13-.16-8.67,0-13S297.25,1764.5,297.81,1760.22Z" transform="translate(-214.8 -1003.78)"/><path class="cls-1" d="M549.45,1756.06l.52-.34c.34-.22.85-.56,1.54-1a42.51,42.51,0,0,1,6.27-3,44.45,44.45,0,0,1,10.69-2.54,42.66,42.66,0,0,1,14.62.87,38,38,0,0,1,8.15,2.93,35.1,35.1,0,0,1,7.91,5.28,36.51,36.51,0,0,1,10.94,17.53,49.77,49.77,0,0,1,1.19,5.28,51.39,51.39,0,0,1,.52,5.4,57,57,0,0,1-.56,10.77,75.26,75.26,0,0,1-2.3,10.46l-.19.64-.1.32-.15.45,0,.14-.43,1.17c-.26.74-.63,1.64-1,2.52-.72,1.75-1.45,3.34-2.27,5a80.77,80.77,0,0,1-12.11,17.5,104,104,0,0,1-15,13.57A130.88,130.88,0,0,1,562,1859a148.58,148.58,0,0,1-14.9,7,154.29,154.29,0,0,1-23.28,7.46c-5.74,1.32-9.08,1.73-9.08,1.73l2.2-1c1.43-.63,3.51-1.61,6.13-2.88,5.23-2.53,12.63-6.25,21.08-11.27,4.22-2.51,8.71-5.33,13.27-8.53a154.69,154.69,0,0,0,13.68-10.69,110.31,110.31,0,0,0,12.69-13,77.65,77.65,0,0,0,9.91-15.37c.66-1.35,1.3-2.78,1.83-4.11.26-.66.53-1.29.81-2.12l.42-1.17,0-.15,0-.07c-.2.57-.05.12-.08.23l.08-.28.15-.55a77,77,0,0,0,2-8.81,56.69,56.69,0,0,0,.71-8.61,40.19,40.19,0,0,0-.85-8.09,31.43,31.43,0,0,0-2.55-7.21,26.32,26.32,0,0,0-1.9-3.17,24.21,24.21,0,0,0-2.25-2.86,30.83,30.83,0,0,0-5.38-4.67,35.51,35.51,0,0,0-6.08-3.28,43.45,43.45,0,0,0-12.19-3,50.9,50.9,0,0,0-10.1,0,54.93,54.93,0,0,0-6.62,1C550.28,1755.85,549.45,1756.06,549.45,1756.06Z" transform="translate(-214.8 -1003.78)"/><path class="cls-1" d="M428.11,1455.34l.66.15a12.43,12.43,0,0,1,1.88.62,23.39,23.39,0,0,1,6.44,4.07,39.21,39.21,0,0,1,7.62,9.22,53.79,53.79,0,0,1,6.06,14.41,59.69,59.69,0,0,1,1.67,8.84,64.87,64.87,0,0,1,.44,9.64,77.21,77.21,0,0,1-3.33,20.51,95.89,95.89,0,0,1-8.73,20.25c-1.87,3.24-3.87,6.44-6.05,9.5s-4.46,6-7,9c-.58.67-1.22,1.38-1.74,2l-1.6,2c-1,1.34-2.13,2.68-3.1,4.06a94,94,0,0,0-5.54,8.38,64.91,64.91,0,0,0-7.24,17.62,52.69,52.69,0,0,0-1,17.69,66.75,66.75,0,0,0,4,15.93,97.25,97.25,0,0,0,6.18,12.94c1,1.91,2.14,3.61,3.09,5.24l2.82,4.37,2.37,3.47c.7,1,1.33,1.85,1.82,2.54l1.51,2.13-2-1.7c-1.29-1.11-3.14-2.8-5.44-5-1.12-1.14-2.36-2.41-3.68-3.82s-2.72-3-4.08-4.77a84,84,0,0,1-8.56-12.6,67.14,67.14,0,0,1-6.59-17.26,61.1,61.1,0,0,1-1.3-10.24,62.46,62.46,0,0,1,.65-10.85,69.07,69.07,0,0,1,7.28-21.27,86.62,86.62,0,0,1,5.89-9.74c1.06-1.58,2.2-3.07,3.33-4.61l1.77-2.28c.6-.77,1.16-1.41,1.73-2.13,2.14-2.56,4.27-5.39,6.21-8.17s3.84-5.63,5.53-8.53a106,106,0,0,0,8.43-17.66,90.29,90.29,0,0,0,2.72-8.89,85,85,0,0,0,1.64-8.73,69.74,69.74,0,0,0,.2-16.29,58.15,58.15,0,0,0-3.13-13.56,42.12,42.12,0,0,0-4.94-9.67,25.23,25.23,0,0,0-4.79-5.26c-.66-.51-1.18-.87-1.56-1.11Z" transform="translate(-214.8 -1003.78)"/><path class="cls-1" d="M461.78,1577.54l-1.17,1.73c-.38.55-.88,1.24-1.36,2.08s-1.12,1.75-1.68,2.86l-.92,1.72c-.28.62-.57,1.27-.88,1.94s-.54,1.4-.84,2.13a20.14,20.14,0,0,0-.75,2.31,27.94,27.94,0,0,0-.94,10.86,39,39,0,0,0,3.69,12.36,130.06,130.06,0,0,0,7.37,13.15c1.41,2.27,2.86,4.61,4.3,7s2.91,4.88,4.27,7.48a85.85,85.85,0,0,1,3.83,8.08l.21.52.15.37.09.25.37,1c.25.7.5,1.28.74,2.1l.71,2.32.56,2.31a39.21,39.21,0,0,1,.9,9.66,30.4,30.4,0,0,1-1.95,9.61,36.29,36.29,0,0,1-4.44,8.34,52.29,52.29,0,0,1-5.78,6.74,99.08,99.08,0,0,0-10,11.13,47.47,47.47,0,0,0-6.5,11.33,28.79,28.79,0,0,0-2.07,10.72,28.21,28.21,0,0,0,1.41,8.55,39.26,39.26,0,0,0,2.22,5.33l1,1.84s-.48-.55-1.39-1.56a31.2,31.2,0,0,1-3.39-4.91,27.36,27.36,0,0,1-3.15-8.94,29.28,29.28,0,0,1-.39-6,33.85,33.85,0,0,1,1-6.57,48.06,48.06,0,0,1,5.9-13.52,87.06,87.06,0,0,1,9.83-12.79,54.07,54.07,0,0,0,4.62-6,32.61,32.61,0,0,0,3.21-6.59A26.41,26.41,0,0,0,471,1662l-.44-1.88-.53-1.81c-.15-.57-.45-1.32-.67-2l-.37-1-.08-.26c-.05-.11,0,.08,0,0l0,0-.05-.12-.19-.47c-1-2.51-2.11-5-3.33-7.45-2.42-4.91-5.16-9.7-7.73-14.5a108.47,108.47,0,0,1-6.74-14.54,41,41,0,0,1-2.66-14.63,29.73,29.73,0,0,1,2.86-12.22,34.49,34.49,0,0,1,5.07-7.9,30.93,30.93,0,0,1,2.3-2.55c.67-.74,1.3-1.29,1.8-1.75Z" transform="translate(-214.8 -1003.78)"/><rect class="cls-1" x="228.98" width="9.13" height="495.36"/></g></svg>