<svg id="Layer_1" data-name="Layer 1" xmlns="http://www.w3.org/2000/svg" viewBox="0 0 533.47 1600"><defs><style>.cls-1{fill:#3b1400;}</style></defs><title>music</title><path class="cls-1" d="M693.36,407.91c7.55-111.89,11.34-199.42,6.77-233.48C669.81-78.87,367,41.17,382.36,169.65c6.55,50.64,23.68,75.21,42.43,88.19,18.38,12.71,40.79,21.2,64.54,18.36,42.14-5.05,72.2-43.73,67.1-86.35S513,116.74,470.84,121.79a77.3,77.3,0,0,0-7.65,1.31c-1.11-2.4-1.05-2.91-1.05-2.91C451,24.92,655.86,12.67,674,169.81c4.72,38.85,2.3,124.57-3.66,233.52-26-3.95-54.73-4.5-86.27-.9-205.17,22.69-269.33,220.28-250,366.91,19.17,160.12,162.44,266.55,287.3,372.23-5.5,103.24-7.71,185-3.48,224.73,13.26,130.23,99.26,267.68,157.8,259.07,46.34-7.16,77-121.83,60.41-258-21.19-189.94-101.54-284.51-189-354.71,3.63-53.38,8-111.42,12.7-171.33a189.78,189.78,0,0,0,46.79.72C911.6,815.85,926.45,465,693.36,407.91ZM639,1265.3c-2.18-22.7-1.93-60.55,0-108.75,88.18,75.91,163.38,152.72,172.85,250C829.8,1557.09,671.49,1507.16,639,1265.3ZM586.7,424.44c31.12-3.5,58.45-1.88,82.25,3.64-5.53,96.18-13.45,208.12-21.51,321-87.23-11.23-159.8-127.37-54.83-245.26-181.92,111-93.22,299.89,48.5,334C637.2,892.91,633.4,947.32,630,999.26c-110.82-84.61-227.56-138-247.06-300.94C359.63,503.75,509,433.75,586.7,424.44ZM677.48,748.7A102.64,102.64,0,0,1,667,749.79c8.75-109.17,17.77-219.6,24.46-315C844.59,492,818.92,731.77,677.48,748.7Z" transform="translate(-330.79 -25.75)"/></svg>