<svg id="Camada_1" data-name="Camada 1" xmlns="http://www.w3.org/2000/svg" viewBox="0 0 262.08 275.21"><defs><style>.cls-1{fill:none;stroke:#3b1400;stroke-miterlimit:10;stroke-width:7px;}</style></defs><title>c5a944f3d869c7d6373cf29e5879021a</title><path class="cls-1" d="M38,85.93a41.63,41.63,0,0,0-4.8,1.44,25.51,25.51,0,0,0-7.68,3.84c-3.91,3.12-5.33,7.35-6.24,10.08a29.68,29.68,0,0,0-1.44,8.64c-.1,2.22-1.16,5.6,0,13.32,1,6.69,1.21,5.46,3.63,15.12,2.31,9.19,3.36,9.28,5,12.36a27.07,27.07,0,0,0,9.12,9.6,25.43,25.43,0,0,0,9.12,3.84c8,1.56,14.45-1.53,17.28-2.88,3-1.46,5.5-2.64,7.68-5.28,1.63-2,3.66-5.46,3.84-16.32a91.38,91.38,0,0,0-1.92-20.16c-2.54-12.26-3.8-18.38-7.68-23C56.23,87.18,43.75,84.67,38,85.93Z"/><path class="cls-1" d="M75.84,28.81c1.7-1.82,7-7.49,13.92-8.16,14.3-1.39,27.52,19.36,32.16,34.08A65.24,65.24,0,0,1,120,94.09a27.7,27.7,0,0,1-6.24,10.08,22.44,22.44,0,0,1-7.68,5.28c-9.29,3.49-19.17-3-21.12-4.32-9.49-6.27-12.71-16-15.36-24A67.39,67.39,0,0,1,67.68,48C69,41.14,70.36,34.66,75.84,28.81Z"/><path class="cls-1" d="M158.64,20.34a15.74,15.74,0,0,1,8.16.24c4,.92,7.12,3.82,8.64,5,3.82,3,5.59,6.64,7.23,10.08A52.84,52.84,0,0,1,187.19,52a65.69,65.69,0,0,1-.9,20.16c-1,5.47-2.19,12.2-6.33,19.68a39.39,39.39,0,0,1-8.14,10.56,25.71,25.71,0,0,1-8.13,5.28c-1.41.54-9.43,3.63-17.17-.48-5.66-3-8.15-8.23-10-12-4-8.43-3.89-16.3-3.61-26.4.17-6.31.35-12.83,2.71-21.12,1.76-6.18,8.6-17.13,14.91-23.52C152.28,22.45,153.7,21.25,158.64,20.34Z"/><path class="cls-1" d="M216.72,83.53a24.51,24.51,0,0,1,10.72,2.35,24,24,0,0,1,9.33,7.53c.79,1.11,3.88,5.63,4.19,16.48.33,11.42-2.69,20-6.06,29.2-3.48,9.56-5.32,14.42-9.79,18.36-1.86,1.64-7.92,6.83-16.78,6.59-10.46-.28-16.89-7.94-17.71-8.94-6.71-8.28-5.51-18.7-4.19-30.14.85-7.33,1.91-16.53,8.39-25.9C197.65,95,205.3,83.92,216.72,83.53Z"/><path class="cls-1" d="M81.72,158.29c2.81-3.14,5.16-6,5.16-6,2.65-3.24,3.31-4.31,5.64-7.08A75.7,75.7,0,0,1,98.16,139a45.9,45.9,0,0,1,10.2-7.8,41.64,41.64,0,0,1,10.92-4.2,37.55,37.55,0,0,1,16.2-.36,39.16,39.16,0,0,1,12.6,5.16,58.08,58.08,0,0,1,13.68,11.28c6.22,6.55,5.16,7.52,12.72,16.2,5.34,6.13,8,9.19,12.72,12.24,3.38,2.19,4.64,2.32,11.28,6.48a89.8,89.8,0,0,1,8.64,6,51.46,51.46,0,0,1,5.88,5.16,39,39,0,0,1,7.68,11.76c2.29,5.59,2.53,10.19,2.76,14.52.24,4.5.46,8.71-1.2,13.92a35.67,35.67,0,0,1-4.68,9.24,30.11,30.11,0,0,1-6.24,7.32,29.56,29.56,0,0,1-8.88,4.8,45.85,45.85,0,0,1-9.72,2.4,82.82,82.82,0,0,1-10.8.84,110.3,110.3,0,0,1-15.36-.36,100,100,0,0,1-33.48-9.84,101,101,0,0,1-9.84-5.76,107,107,0,0,1-21.36-18.72c-4.84-5.53-7.61-8.75-10-14.16a41.57,41.57,0,0,1-3.36-14c-.27-4.56-.64-10.63,2.88-16.56,1.08-1.83,3.27-5.41,7.44-7.08a18.51,18.51,0,0,1,5.16-1.08,22.58,22.58,0,0,1,7.92.24,19.33,19.33,0,0,1,8.88,5.16c3.23,3.05,6.55,8,7.56,7.56a3.49,3.49,0,0,0,.78-.48,3.28,3.28,0,0,0,.66-.78c1.29-2.14,1.94-3.21,2.22-3.78.76-1.59,2-2.54,4.5-4.44a18.52,18.52,0,0,1,5.4-3.18,23,23,0,0,1,5.76-1.08,17.09,17.09,0,0,1,3.84-.18,12.52,12.52,0,0,1,6.18,2.82,20.93,20.93,0,0,1,6.9,7.62c1.49,2.91,1.77,5.32,2.16,8.7A38.61,38.61,0,0,1,161,210.37a64.73,64.73,0,0,1-12.54,15.3c-3.57,3.37-7.56,6.21-15.54,11.88-8.42,6-11.58,7.59-13.56,8.52a89,89,0,0,1-11.34,4.26,51,51,0,0,1-10.14,2.58,42.85,42.85,0,0,1-8,1.17c-3,.12-4.64.4-6.39.45-5.26.14-4.63.06-15.21,0a35.76,35.76,0,0,1-8.73-1,27.68,27.68,0,0,1-13.68-6.18A35.82,35.82,0,0,1,38,238.27a36.4,36.4,0,0,1-5.46-11.34c-.93-3.52-1-6.18-1.08-10.56s-.16-7.34.84-11.16a32.79,32.79,0,0,1,3.78-8.64,38.67,38.67,0,0,1,9.12-10c5.28-4.39,7.11-4.64,13.86-9.12A123.13,123.13,0,0,0,81.72,158.29Z"/></svg>