<svg id="Camada_1" data-name="Camada 1" xmlns="http://www.w3.org/2000/svg" viewBox="0 0 252.07 240.44"><defs><style>.cls-1{fill:#3b1400;}</style></defs><title>winter-1568</title><path class="cls-1" d="M253.9,99.25a2.81,2.81,0,0,0-3.53-1.8l-54.6,17.74,23-39.57a2.81,2.81,0,0,0-4.85-2.82l-26.09,45-27.81,9-29.18-21.2V76.38l34.72-38.71a2.8,2.8,0,1,0-4.17-3.74L130.8,68V10.58a2.8,2.8,0,0,0-5.6,0V68L94.65,33.92a2.8,2.8,0,0,0-4.17,3.74L125.2,76.38v29.24L96,126.82l-27.81-9-26.09-45a2.81,2.81,0,0,0-4.85,2.82l23,39.57L5.63,97.45a2.8,2.8,0,0,0-1.73,5.33l54.59,17.74L16.66,139.05a2.8,2.8,0,0,0,1.13,5.36,2.88,2.88,0,0,0,1.14-.24l47.54-21.06,27.81,9,11.15,34.3L88.24,190.11,37.4,201a2.8,2.8,0,0,0,.59,5.54,3,3,0,0,0,.59-.06l44.73-9.6L49.57,243.33a2.8,2.8,0,0,0,.62,3.91,2.73,2.73,0,0,0,1.64.54,2.8,2.8,0,0,0,2.27-1.15l33.74-46.44,4.69,45.51a2.8,2.8,0,0,0,2.78,2.51l.3,0a2.8,2.8,0,0,0,2.49-3.07L92.77,193.4,110,169.73H146l17.18,23.66-5.33,51.74a2.79,2.79,0,0,0,2.5,3.07l.3,0a2.8,2.8,0,0,0,2.78-2.51l4.69-45.51,33.74,46.44a2.8,2.8,0,1,0,4.53-3.29L172.7,196.91l44.73,9.6a3,3,0,0,0,.59.06,2.8,2.8,0,0,0,.58-5.54l-50.83-10.91-17.2-23.66,11.15-34.3,27.81-9,47.55,21.06a2.83,2.83,0,0,0,1.13.24,2.8,2.8,0,0,0,1.14-5.36l-41.84-18.53,54.6-17.74A2.82,2.82,0,0,0,253.9,99.25Z" transform="translate(-1.96 -7.78)"/></svg>